<svg width="42" height="39" viewBox="0 0 42 39" fill="none" xmlns="http://www.w3.org/2000/svg">
<path d="M21.002 3.43444C25.8958 -0.958332 33.4583 -0.812499 38.172 3.91117C42.886 8.63483 43.0479 16.1604 38.6637 21.0688L20.9997 38.7604L3.33616 21.0688C-1.04786 16.1604 -0.883982 8.62294 3.82779 3.91117C8.54489 -0.805936 16.0941 -0.964853 21.002 3.43444ZM35.2229 6.85438C32.0997 3.72488 27.0575 3.59794 23.7854 6.53515L21.0039 9.03175L18.221 6.53711C14.9395 3.59577 9.90633 3.72517 6.77406 6.85744C3.67043 9.96106 3.51462 14.9319 6.37481 18.215L20.9997 32.8631L35.6252 18.215C38.4864 14.9306 38.3312 9.96927 35.2229 6.85438Z" fill="black"/>
</svg>
